<svg width="120" height="44" viewBox="0 0 120 44" fill="none" xmlns="http://www.w3.org/2000/svg">
<path d="M77.9257 7.25864C81.487 7.25865 82.4506 8.72172 82.4647 8.74338L81.242 12.1627C81.242 12.1627 78.6869 9.2481 76.1863 9.24799C75.3983 9.24799 75.0451 9.38809 75.0449 9.69615C75.0449 10.3407 76.811 11.5184 79.2844 13.396C82.3559 15.7502 83.4709 16.5347 83.4709 18.4404C83.4709 19.1691 83.0356 22 77.681 22C73.9514 22 72.5326 19.7277 72.5166 19.7019L75.0714 17.0112C75.0714 17.0112 76.7571 20.1776 80.2906 20.2057C80.6711 20.2056 81.0519 20.0382 81.3781 19.7019C81.3781 19.0293 79.7471 18.0757 77.2737 16.3381C73.5773 13.5918 73.2234 12.1068 73.2233 10.7336C73.2233 9.36034 74.8543 7.25864 77.9257 7.25864Z" fill="#F3F4F6"/>
<path d="M88.4951 7.65035H91.7293L91.2133 9.05213H88.549V18.4404C88.549 20.6824 92.7896 20.0658 93.5235 19.7575C93.5235 19.7575 92.4634 22 88.7124 22C85.9129 22 85.0156 19.5895 85.0428 18.3283C85.0698 17.0991 85.3677 9.10246 85.3696 9.05213H84.0648L88.4951 4.34389V7.65035Z" fill="#F3F4F6"/>
<path fill-rule="evenodd" clip-rule="evenodd" d="M48.2913 7.25864C51.3627 7.25864 52.559 9.30444 52.559 9.30444L46.4706 17.0668C46.4706 17.0668 46.4433 17.2356 46.5792 17.5158C47.612 19.7855 48.7808 19.926 50.2755 19.926C51.1181 19.926 51.9883 19.7854 52.8037 19.6172C52.5591 19.9255 51.3088 21.9716 48.2648 21.9718C44.8128 21.9718 42.5562 19.6171 42.5562 14.4044C42.5563 10.2569 44.2961 7.25881 48.2913 7.25864ZM46.2259 9.24799C45.2746 9.19195 45.0302 9.75265 44.9758 10.8456C44.9759 12.8329 46.1416 15.9661 46.1446 16.002C46.163 15.9736 48.1035 12.9718 48.5634 12.2465C49.9495 10.0607 48.509 9.38811 46.2259 9.24799Z" fill="#F3F4F6"/>
<path fill-rule="evenodd" clip-rule="evenodd" d="M32.7392 9.78082C33.2828 9.30439 35.7834 7.25869 37.4142 7.25864C40.1051 7.25864 41.4372 11.0979 41.4372 14.3488C41.4372 18.5806 39.6157 21.9153 36.1094 21.9153C34.9135 21.9153 33.5543 21.5228 32.0051 20.682C30.8965 21.1838 29.5998 21.686 29.5863 21.6912V4.53975C29.5863 4.52991 29.5826 2.96743 28.5801 2.01757L32.7392 0.0555923V9.78082ZM35.0767 10.1725C34.1254 10.1725 33.1741 10.3973 32.7392 10.6215V17.2353C32.7392 17.3475 32.7665 17.8522 32.8752 18.3566C33.3103 20.1219 35.6201 20.9064 37.0335 19.7857C37.713 19.2252 38.0662 17.2915 38.0662 15.3298C38.0662 13.4801 37.7672 11.6865 37.2508 10.9859C36.7615 10.3694 35.9193 10.1725 35.0767 10.1725Z" fill="#F3F4F6"/>
<path d="M5.84377 1.98935C4.86526 3.61482 4.86497 5.18462 4.86497 5.18462C4.89215 8.43547 4.94709 11.5182 4.94709 14.9372C4.94709 18.3842 7.61028 19.7574 9.78468 19.7575C12.0406 19.7575 12.313 16.8151 12.313 15.0775V5.09995C12.3129 4.70695 12.1226 3.05399 11.3889 1.98935H15.9553C15.0311 3.61482 15.0312 5.18462 15.0312 5.18462V14.9937C15.0311 17.0397 13.9704 21.8597 7.96395 21.8597C2.31047 21.8597 1.08693 18.2724 1.00534 14.4891V5.1564C0.978162 4.93219 0.978508 3.16641 0 1.98935H5.84377Z" fill="#F3F4F6"/>
<path d="M57.3792 12.835C57.95 12.4146 59.3906 11.35 60.9941 9.78082C61.4562 9.27636 61.0219 8.09876 60.7229 7.65035H65.6426C63.0876 9.75225 62.0816 10.089 60.2061 11.9387C60.2204 11.9734 63.2853 19.4266 66.458 21.6074C66.458 21.6074 65.3977 21.8315 64.2018 21.8315C63.332 21.8315 62.408 21.7192 61.7556 21.3269C60.6956 20.6543 58.3582 16.3946 57.434 14.5729C57.4612 15.8059 57.4605 17.067 57.4605 18.3001C57.4605 18.4402 57.4884 19.9539 58.4941 21.6074H53.2749C54.2262 20.4023 54.2811 18.7483 54.2811 18.3839V4.45593C54.2811 4.45593 54.2806 2.91399 53.2749 1.96112L57.3792 0V12.835Z" fill="#F3F4F6"/>
<path fill-rule="evenodd" clip-rule="evenodd" d="M95.4379 8.43549C96.9872 6.86607 99.2438 6.64176 101.255 7.4545C105.006 8.96786 105.06 11.0418 105.06 11.5743V17.9076C105.06 18.1598 105.088 19.533 106.039 20.3177L103.076 21.6074C103.068 21.6055 101.88 21.3213 101.88 19.7293V19.2529C101.336 19.8134 99.4338 21.775 97.9389 21.7751C96.2809 21.7751 93.6715 18.9172 93.6711 16.9274C93.6711 16.3389 93.916 15.7781 94.5139 15.4418C96.8786 14.2087 99.9233 12.6388 101.717 11.7419C101.771 11.1248 101.581 8.85542 100.738 8.85542C99.1076 8.85545 97.5312 10.2294 96.7701 11.8548L95.4379 8.43549ZM101.744 12.7512C101.336 13.0035 100.439 13.5645 98.2375 14.9654C97.5038 15.4419 97.2048 16.1144 97.2048 16.7589C97.2048 17.6276 97.7212 18.4687 98.3735 18.6089C98.7267 18.6929 99.1073 18.7209 99.5149 18.7209C100.412 18.7209 101.363 18.5807 101.88 18.3566L101.744 12.7512Z" fill="#F3F4F6"/>
<path d="M70.9198 18.3001C70.9198 18.4402 70.9469 19.9539 71.9526 21.6074H66.7068C67.6854 20.4023 67.7396 18.7763 67.7396 18.3839V11.7146C67.7396 11.7146 67.7397 10.0886 66.7068 9.21976L70.8925 7.25864L70.9198 18.3001Z" fill="#F3F4F6"/>
<path d="M20.5946 20.1783H23.8835C24.4 20.1783 24.6993 20.1781 25.107 19.7857L27.4719 18.076L28.2326 21.5792H15.947L23.8296 9.05213H20.7854C20.2961 9.05213 19.8068 9.08011 19.4806 9.52852L18.0124 11.7146L16.3551 7.65035H28.5046L20.5946 20.1783Z" fill="#F3F4F6"/>
<path d="M115.787 7.09015C117.662 7.09015 118.967 8.18328 118.967 10.7336C118.967 13.2558 118.995 15.8063 118.995 18.3566C118.995 18.6652 119.076 19.7302 120 21.5792H115.08C116.031 19.1154 116.086 18.3578 116.086 18.2445V12.1345C116.086 12.1132 116.072 9.92108 113.096 9.92108C112.471 9.92112 111.737 10.089 110.84 10.4813L110.895 18.2719C110.895 18.412 110.922 19.9257 111.927 21.5792H106.709C107.66 20.3744 107.714 18.7214 107.714 18.3566V11.5461C107.714 11.5362 107.711 10.0019 106.709 9.05213C106.709 8.99608 110.813 7.09015 110.813 7.09015V9.72437C111.385 9.21963 113.939 7.09032 115.787 7.09015Z" fill="#F3F4F6"/>
<path d="M69.2078 0.672239C70.1319 2.4658 71.6266 3.25086 71.6266 3.25086L69.153 6.02535C67.4678 5.04446 66.6521 3.22264 66.6521 3.22264L69.2078 0.672239Z" fill="#F3F4F6"/>
<path d="M108.143 29.1494C107.584 29.6615 107.531 30.1226 107.759 30.8225C107.986 31.5213 109.275 35.487 109.28 35.5013L110.94 31.0615C111.203 30.1907 110.766 29.8324 110.189 29.1494H113.354C112.812 29.6786 112.392 30.157 112.025 31.0448C112.005 31.0915 110.027 35.7494 109.227 37.6524C108.405 39.582 106.552 41 105.031 41C103.492 41 102.985 40.4025 102.985 40.4025L104.822 38.678C104.834 38.712 105.287 40.0088 106.132 40.0092C107.268 40.0092 107.741 38.1149 107.742 37.6191C107.742 37.6191 105.713 32.171 105.398 31.3172C105.066 30.4466 104.611 29.7127 104.052 29.1494H108.143Z" fill="#2970FF"/>
<path d="M62.7674 35.6375C62.7674 35.8765 62.6967 38.9161 59.5146 40.4358C58.6579 40.8456 57.9755 40.9819 57.4685 40.9819C56.4022 40.9818 56 40.3844 56 40.3844L57.8541 38.6432C58.1513 39.4456 58.7102 39.7705 59.3396 39.7535C60.6859 39.7023 60.7383 36.6279 60.7383 35.6375V31.8466C60.7373 31.821 60.6949 30.8499 60.0738 30.3445C60.0738 30.3445 61.6833 29.6275 62.7674 29.1494V35.6375Z" fill="#2970FF"/>
<path fill-rule="evenodd" clip-rule="evenodd" d="M67.8757 28.9104C70.6383 28.9104 72.0377 30.925 72.0377 33.4864C72.0377 36.7307 70.1487 37.9095 67.8757 37.9095C65.5853 37.9095 63.7139 36.7138 63.7136 33.4016C63.7136 30.089 65.5852 28.9104 67.8757 28.9104ZM66.2849 30.1569C65.7603 30.1569 65.5506 30.447 65.5506 30.9934C65.5506 32.4275 65.7424 33.7934 66.3716 35.108C66.9312 36.3375 68.0157 36.8326 69.3271 36.8326C69.7641 36.8325 70.0442 36.508 70.0442 35.8251C70.0442 34.3739 70.0786 32.9736 69.3968 31.659C68.7848 30.4811 67.596 30.1569 66.2849 30.1569Z" fill="#2970FF"/>
<path d="M80.1981 35.1775C80.1983 35.2057 80.2089 36.1412 80.8626 36.713C80.8626 36.73 78.2353 37.7784 78.2061 37.79V36.3045C77.8563 36.629 76.4225 37.892 75.1639 37.9095H75.1283C73.17 37.9095 73.1177 36.5085 73.1177 35.6889V31.5743C73.1177 31.5743 73.1172 30.6008 72.4703 30.0373L74.9888 28.9104V34.6133C74.9888 34.6133 74.9885 36.1503 76.702 36.1503C77.1041 36.1502 77.5586 36.0641 78.1705 35.8251V31.6423C78.1705 31.6423 78.1704 30.686 77.506 30.1054L80.1981 28.9104V35.1775Z" fill="#2970FF"/>
<path d="M116.434 28.9104C118.742 28.9105 119.354 29.815 119.354 29.815L118.567 31.898C118.564 31.8943 116.921 30.1221 115.314 30.1221C114.807 30.1221 114.58 30.2081 114.58 30.3959C114.58 30.7886 115.717 31.5059 117.308 32.6498C119.284 34.0841 120 34.5625 120 35.7236C120 36.1682 119.72 37.8914 116.276 37.8914C113.875 37.8914 112.963 36.5057 112.954 36.4921L114.597 34.8524C114.597 34.8524 115.682 36.7821 117.955 36.7992C118.2 36.7991 118.444 36.6966 118.654 36.4921C118.654 36.0823 117.605 35.501 116.014 34.4424C113.637 32.7694 113.409 31.8647 113.409 31.0281C113.409 30.1914 114.458 28.9104 116.434 28.9104Z" fill="#2970FF"/>
<path fill-rule="evenodd" clip-rule="evenodd" d="M101.179 28.9104C103.154 28.9107 103.924 30.1569 103.924 30.1569L100.007 34.8871C100.005 34.8953 99.9928 34.9962 100.076 35.1595C100.741 36.5426 101.494 36.6283 102.455 36.6283C102.997 36.6282 103.556 36.5431 104.08 36.4407C103.922 36.6297 103.118 37.8748 101.161 37.8748C98.9402 37.8746 97.4894 36.4399 97.4894 33.264C97.4896 30.737 98.6089 28.9104 101.179 28.9104ZM99.8501 30.1221C99.2381 30.088 99.0797 30.4303 99.0447 31.0962C99.0449 32.3086 99.7974 34.2211 99.7974 34.2381C99.7974 34.2381 101.055 32.3937 101.353 31.9495C102.244 30.6177 101.319 30.2076 99.8501 30.1221Z" fill="#2970FF"/>
<path d="M83.9916 30.3097C84.3592 29.8995 85.4258 28.8075 86.7891 28.8075C87.9255 28.8076 88.2931 29.4398 88.2931 29.4398L86.5785 31.5228C86.5732 31.5116 86.1528 30.6185 85.0759 30.6182C84.7787 30.6182 84.4112 30.7032 83.9916 30.8739L84.0087 35.6208C84.0087 35.7062 84.0263 36.6283 84.6732 37.6357H81.3166C81.9282 36.9017 81.9625 35.8945 81.9626 35.6722V31.4881C81.9616 31.4634 81.9206 30.4585 81.3166 29.9693L83.9916 28.7742V30.3097Z" fill="#2970FF"/>
<path d="M94.3106 28.8075C95.5171 28.8075 96.3568 29.4743 96.3568 31.0281C96.3568 32.5647 96.3739 34.1186 96.3739 35.6722C96.3739 35.8603 96.427 36.5091 97.0213 37.6357H93.8567C94.4675 36.1359 94.5026 35.6737 94.5027 35.6041V31.8814C94.5027 31.8814 94.5033 30.5322 92.5804 30.532C92.1783 30.532 91.7059 30.6349 91.129 30.8739L91.1632 35.6208C91.1632 35.7062 91.1808 36.6284 91.8277 37.6357H88.471C89.0828 36.9017 89.1184 35.8945 89.1184 35.6722V31.5228C89.1184 31.5228 89.1179 30.5832 88.471 30.0026C88.4862 29.962 91.1119 28.8075 91.1119 28.8075V30.4125C91.4801 30.1044 93.1223 28.8078 94.3106 28.8075Z" fill="#2970FF"/>
<path d="M61.5608 25C62.1472 26.0777 63.0904 26.5574 63.116 26.5703L61.5252 28.2614C60.429 27.6667 59.9039 26.5478 59.8988 26.5369L61.5608 25Z" fill="#2970FF"/>
</svg>
