<svg width="16" height="14" viewBox="0 0 16 14" fill="none" xmlns="http://www.w3.org/2000/svg">
<path d="M15.75 4.35938C15.75 9.28125 8.45226 13.2652 8.14148 13.4297C8.05957 13.4738 7.96801 13.4968 7.875 13.4968C7.78199 13.4968 7.69043 13.4738 7.60852 13.4297C7.29773 13.2652 0 9.28125 0 4.35938C0.00130271 3.2036 0.461011 2.09553 1.27827 1.27827C2.09553 0.461011 3.2036 0.00130271 4.35938 0C5.81133 0 7.08258 0.624375 7.875 1.67977C8.66742 0.624375 9.93867 0 11.3906 0C12.5464 0.00130271 13.6545 0.461011 14.4717 1.27827C15.289 2.09553 15.7487 3.2036 15.75 4.35938Z" fill="#2970FF"/>
</svg>
