<svg width="18" height="21" viewBox="0 0 18 21" fill="none" xmlns="http://www.w3.org/2000/svg">
<path d="M17.25 8.62408C17.25 10.8366 16.4728 12.8644 15.0609 14.3316C13.7363 15.7088 11.9372 16.4991 10.125 16.4991C8.67656 16.4991 7.61438 16.1072 6.85406 15.6263L5.97 19.3819C5.9374 19.527 5.87637 19.6642 5.79042 19.7855C5.70447 19.9069 5.59531 20.01 5.46926 20.0889C5.34321 20.1678 5.20277 20.2209 5.05606 20.2452C4.90935 20.2695 4.75928 20.2644 4.61453 20.2304C4.46979 20.1963 4.33323 20.1338 4.21277 20.0466C4.0923 19.9595 3.99031 19.8493 3.91271 19.7224C3.8351 19.5956 3.78342 19.4546 3.76064 19.3076C3.73786 19.1607 3.74444 19.0107 3.78 18.8663L6.78 6.11627C6.8126 5.97118 6.87364 5.83399 6.95959 5.71264C7.04553 5.59129 7.15469 5.48818 7.28074 5.40928C7.40679 5.33038 7.54723 5.27725 7.69394 5.25297C7.84065 5.22868 7.99072 5.23373 8.13547 5.26781C8.28022 5.30189 8.41677 5.36433 8.53724 5.45152C8.6577 5.5387 8.75969 5.64891 8.83729 5.77576C8.9149 5.90261 8.96659 6.04359 8.98936 6.19054C9.01214 6.33749 9.00556 6.4875 8.97 6.63189L7.42781 13.1878C7.755 13.5797 8.54625 14.2491 10.125 14.2491C12.5213 14.2491 15 12.1444 15 8.62408C14.9995 7.64653 14.7742 6.6822 14.3415 5.80563C13.9088 4.92905 13.2803 4.16373 12.5047 3.56882C11.729 2.97392 10.8269 2.56536 9.86808 2.37475C8.9093 2.18413 7.91952 2.21656 6.97528 2.46953C6.03103 2.7225 5.1576 3.18923 4.42253 3.83364C3.68746 4.47805 3.11043 5.28288 2.73605 6.18589C2.36167 7.08891 2.19997 8.06593 2.26346 9.04141C2.32695 10.0169 2.61392 10.9647 3.10219 11.8116C3.24 12.0691 3.27228 12.37 3.19221 12.6509C3.11214 12.9318 2.92599 13.1705 2.67312 13.3166C2.42025 13.4627 2.12047 13.5047 1.83716 13.4338C1.55386 13.3629 1.30923 13.1846 1.155 12.9366C0.4937 11.7908 0.104811 10.5084 0.0184147 9.18829C-0.0679814 7.86823 0.150431 6.54598 0.656757 5.32383C1.16308 4.10168 1.94375 3.01237 2.93838 2.14017C3.93301 1.26797 5.11494 0.636249 6.39276 0.293872C7.67057 -0.0485057 9.01001 -0.0923628 10.3075 0.165693C11.605 0.423748 12.8257 0.9768 13.8752 1.78207C14.9248 2.58734 15.775 3.62324 16.3602 4.80966C16.9454 5.99607 17.2499 7.3012 17.25 8.62408Z" fill="#99A1AF"/>
</svg>
